<svg width="24" height="24" viewBox="0 0 24 24" fill="none" xmlns="http://www.w3.org/2000/svg">
<rect width="24" height="24" fill="none"/>
<path d="M11.5 7.08297C9.54142 7.08297 7.95407 8.70742 7.95407 10.6987C7.95407 12.7031 9.54142 14.3275 11.5 14.3275C13.4458 14.3275 15.0459 12.7031 15.0459 10.6987C15.0459 8.70742 13.4458 7.08297 11.5 7.08297ZM11.5 12.9127C10.3095 12.9127 9.3366 11.917 9.3366 10.6987C9.3366 9.48035 10.3095 8.49782 11.5 8.49782C12.6905 8.49782 13.6634 9.48035 13.6634 10.6987C13.6634 11.917 12.6905 12.9127 11.5 12.9127Z" fill="#1E1E1E"/>
<path d="M15.7628 15.048C16.8509 13.9345 17.5166 12.4017 17.5166 10.6987C17.5166 7.30568 14.8155 4.54148 11.5 4.54148C8.18449 4.54148 5.48343 7.30568 5.48343 10.6987C5.48343 12.4017 6.1619 13.9476 7.2372 15.048C7.36521 15.179 7.54443 15.2576 7.73645 15.2576C8.12048 15.2576 8.42771 14.9432 8.42771 14.5502C8.42771 14.3537 8.3381 14.1703 8.21009 14.0393C7.37801 13.1878 6.86596 12.0087 6.86596 10.6987C6.86596 8.0786 8.93976 5.95633 11.5 5.95633C14.0602 5.95633 16.134 8.0786 16.134 10.6987C16.134 12.0087 15.622 13.2009 14.7771 14.0524L8.76054 20.2096L9.74623 21.2052L15.7628 15.048Z" fill="#1E1E1E"/>
<path d="M20 10.6987C20 5.90393 16.198 2 11.5 2C6.80196 2 3 5.90393 3 10.6987C3 13.0961 3.94729 15.2838 5.48343 16.8428C5.61145 16.9738 5.77786 17.0524 5.98268 17.0524C6.35392 17.0524 6.67395 16.738 6.67395 16.345C6.67395 16.1485 6.58434 15.9651 6.45633 15.8341C5.1762 14.524 4.38253 12.7031 4.38253 10.6987C4.38253 6.68996 7.57003 3.41485 11.5 3.41485C15.43 3.41485 18.6175 6.68996 18.6175 10.6987C18.6175 12.7162 17.8238 14.5371 16.5309 15.8472L10.5143 22.0044L11.5 23L17.5166 16.8428C19.0527 15.2707 20 13.0961 20 10.6987Z" fill="#1E1E1E"/>
</svg>
