<svg width="24" height="24" viewBox="0 0 24 24" fill="none" xmlns="http://www.w3.org/2000/svg">
<rect width="24" height="24" fill="none"/>
<path fill-rule="evenodd" clip-rule="evenodd" d="M2 7.81575H21.9018V6.98086H2V7.81575ZM17.2473 9.336H15.0468V17.1411H13.9947V11.8451C13.9947 11.4019 13.9693 11.1215 13.8867 10.8478C13.7269 10.3 13.3569 9.71428 12.8914 9.47931C12.6106 9.336 12.2857 9.27726 11.9478 9.27726C11.5528 9.27726 11.1823 9.36182 10.8703 9.55763C10.4552 9.81219 10.1365 10.3649 9.99009 10.8999C9.92001 11.1478 9.90082 11.4214 9.90082 11.8456V17.1411H8.84878V9.336H6.64872V17.1411H5.60962L5.59623 9.336H3.46715V17.1411H2.42091V9.336H2V8.50156H21.9018V9.336H21.4813V17.1411H20.4355V9.336H18.2931V17.1411H17.2468L17.2473 9.336ZM2.29727 5.68669L2.90966 4.8518L3.51535 5.68669L2.90966 6.52114L2.29727 5.68669ZM5.07133 20.5349C5.42841 20.6916 5.73415 21.0699 5.73415 21.6177C5.73415 22.3222 5.35788 22.7717 4.87984 22.9083C4.58615 23 4.2804 23 4.00054 23H2.29682V18.2328H4.10141C4.32458 18.2328 4.57365 18.2394 4.82226 18.3049C5.24942 18.4219 5.64444 18.7873 5.64444 19.4588C5.64444 20.0783 5.30075 20.3783 5.07088 20.5024V20.5349H5.07133ZM4.13399 20.3C4.29959 20.3 4.45224 20.2804 4.58034 20.202C4.76513 20.0979 4.89279 19.8763 4.89279 19.5434C4.89279 19.2176 4.73969 19.0022 4.51607 18.9243C4.4085 18.8785 4.27415 18.8652 4.10186 18.8652H3.03687V20.3H4.13399ZM4.96286 21.6173C4.96286 21.2719 4.79727 21.0761 4.59954 20.9915C4.47188 20.939 4.32503 20.9261 4.19782 20.9261H3.03731V22.3738H4.18488C4.32503 22.3738 4.45938 22.3609 4.56784 22.3222C4.81646 22.2243 4.96286 21.9956 4.96286 21.6177V21.6173ZM5.95644 5.65376C5.87595 5.62466 5.8064 5.57154 5.75728 5.50162C5.70816 5.4317 5.68185 5.34838 5.68193 5.26302C5.68193 5.03427 5.86047 4.8518 6.09034 4.8518C6.31352 4.8518 6.49205 5.03427 6.49205 5.26302C6.49205 5.44548 6.38359 5.59502 6.22425 5.64753L6.61302 6.45616H5.56722L5.95644 5.65376ZM11.6385 22.3022L11.1412 23H6.46036L8.9983 18.2328H10.5543V22.3218L11.6385 22.3022ZM9.82717 22.3542V18.8131H9.34289L7.49946 22.3542H9.82762H9.82717ZM8.83896 6.39653H15.037V5.56164H8.83896V6.39653ZM10.7217 4.87583H13.2346V4.04139H10.7217V4.87583ZM11.0194 1.82822H12.869V1H11.0194V1.82822ZM11.2176 2.52025H12.5829L11.9 3.45928L11.218 2.52025H11.2176ZM16.5443 18.2328V23H15.8042V20.7891H13.4386V23H12.7052V18.2328H13.4386V20.1371H15.8042V18.2328H16.5443ZM17.6543 5.64753C17.495 5.59502 17.3865 5.44504 17.3865 5.26302C17.3865 5.03427 17.5651 4.8518 17.7883 4.8518C18.0177 4.8518 18.1962 5.03427 18.1962 5.26302C18.1962 5.44548 18.0815 5.59502 17.9222 5.65376L18.3109 6.45616H17.2651L17.6543 5.64753ZM19.7808 21.0561L18.4997 23H17.7597L19.4304 20.5412L17.8365 18.2328H18.7229L19.8834 19.915L20.9859 18.2328H21.7005L20.2275 20.4241L22 23H21.1198L19.7808 21.0561ZM20.3365 5.68669L20.9426 4.8518L21.5545 5.68669L20.943 6.52114L20.3369 5.68625L20.3365 5.68669Z" fill="#1E1E1E"/>
</svg>
