<svg width="24" height="24" viewBox="0 0 24 24" fill="none" xmlns="http://www.w3.org/2000/svg">
<rect width="24" height="24" fill="none"/>
<path fill-rule="evenodd" clip-rule="evenodd" d="M5.76372 10.0568L4 10.0891L4.07051 10.3285C4.10921 10.4602 4.16706 10.7682 4.19886 11.0129L4.25682 11.4579L4.63676 11.3472C5.23262 11.1736 6.73335 11.209 7.18747 11.4074L7.57975 11.5788V10.7775C7.57975 10.3368 7.56804 9.98713 7.5536 10.0004C7.53917 10.0136 6.73377 10.039 5.76372 10.0568ZM8.58349 10.3102C8.73841 10.4861 8.79103 10.7396 8.82001 11.4484L8.85725 12.3604L9.12809 12.2905C9.27695 12.2521 9.55448 12.1537 9.74466 12.072C10.0842 11.9261 10.0904 11.9114 10.0904 11.2428C10.0904 10.8007 10.1475 10.4782 10.2533 10.323L10.416 10.0838H9.40018H8.3842L8.58349 10.3102ZM11.6172 10.31C11.7968 10.5139 11.8198 10.752 11.8502 12.7203C11.8808 14.6987 11.8392 15.2289 11.6073 15.8118C11.5393 15.9829 11.6195 16 12.4912 16H13.4497L13.287 15.7609C13.151 15.5613 13.1241 15.1124 13.1241 13.0419C13.1241 10.9715 13.151 10.5225 13.287 10.323L13.4497 10.0838H12.4339H11.4179L11.6172 10.31ZM14.7714 10.4095C15.5466 10.8667 16.376 11.7761 16.8326 12.6697C17.0476 13.0902 17.2395 13.4176 17.2592 13.3973C17.297 13.3586 18.0408 11.5645 18.0408 11.5123C18.0408 11.4958 17.9765 11.4822 17.8981 11.4822C17.8196 11.4822 17.6228 11.2856 17.461 11.0454C16.8613 10.1556 16.7065 10.0837 15.3913 10.0848L14.2225 10.0859L14.7714 10.4095ZM18.5632 12.6923C18.5627 14.796 18.5323 15.3604 18.4063 15.6089C18.3203 15.7784 18.25 15.9357 18.25 15.9585C18.25 15.9813 18.6555 16 19.1514 16C20.0425 16 20.0518 15.9972 19.9648 15.758C19.8513 15.4456 19.8443 10.6445 19.9569 10.3259C20.0405 10.0894 20.0254 10.0838 19.3031 10.0838H18.5638L18.5632 12.6923ZM14.6932 13.3146C14.6932 15.1173 14.6656 15.513 14.5243 15.7348L14.3553 16H15.3089C15.8333 16 16.2617 15.988 16.2608 15.9731C16.26 15.9583 16.1914 15.7526 16.1085 15.516C16.0071 15.2268 15.9562 14.6207 15.9532 13.6676L15.9486 12.2495L15.4323 11.7045C15.1484 11.4048 14.8659 11.1595 14.8046 11.1595C14.7295 11.1595 14.6932 11.862 14.6932 13.3146ZM4.57923 11.9233L4.24625 12.0224L4.20472 13.7692C4.18192 14.73 4.12616 15.6249 4.08086 15.758C3.99948 15.9975 4.00837 16 4.9599 16H5.92116L5.70441 15.7166C5.5045 15.4553 5.48755 15.2915 5.48755 13.619V11.8049L5.19988 11.8146C5.04171 11.82 4.7624 11.8689 4.57923 11.9233ZM10.7704 12.1375C10.5402 12.3109 10.0224 12.5708 9.61965 12.7152L8.88738 12.9777L8.8335 14.193C8.8039 14.8615 8.72157 15.5141 8.65044 15.6433C8.57941 15.7726 8.52124 15.9057 8.52124 15.9391C8.52124 15.9726 8.94763 16 9.4687 16H10.416L10.2533 15.7609C10.1433 15.5995 10.0905 15.2764 10.0906 14.7659L10.0909 14.01L10.666 13.701L11.2411 13.392V12.5984C11.2411 12.162 11.2294 11.8089 11.215 11.8136C11.2005 11.8185 11.0005 11.9642 10.7704 12.1375Z" fill="#1E1E1E"/>
<rect x="1.5" y="1.5" width="21" height="21" rx="2.5" stroke="#1E1E1E"/>
</svg>
