<svg width="24" height="24" viewBox="0 0 24 24" fill="none" xmlns="http://www.w3.org/2000/svg">
<rect width="24" height="24" fill="none"/>
<path d="M2.0308 18.8475C2.0308 18.7777 2.027 18.7089 2.03149 18.6408C2.05499 18.2904 2.08159 17.94 2.10578 17.5895C2.1279 17.2678 2.14863 16.946 2.17006 16.6243C2.18526 16.3944 2.20046 16.1646 2.2167 15.9348C2.24193 15.573 2.26646 15.2111 2.29411 14.8493C2.33039 14.3775 2.41298 13.9131 2.51941 13.4524C2.75956 12.4135 3.14693 11.431 3.65005 10.4927C4.11447 9.62695 4.66839 8.82275 5.30454 8.07453C5.92515 7.34463 6.60658 6.67797 7.35089 6.0749C7.84849 5.67159 8.3713 5.30629 8.92419 4.98385C9.35751 4.73122 9.8081 4.51245 10.2801 4.34173C10.709 4.18655 11.1468 4.06421 11.6025 4.02067C11.9243 3.98991 12.2456 3.99302 12.5677 4.03311C13.2608 4.11951 13.9122 4.34104 14.5421 4.63341C15.5207 5.08753 16.3988 5.6944 17.2081 6.40426C17.9904 7.09061 18.677 7.86337 19.2876 8.70525C19.6363 9.18597 19.9549 9.68536 20.2403 10.2058C20.5005 10.6803 20.731 11.1694 20.9331 11.6725C21.1048 12.1004 21.2531 12.5362 21.3733 12.9806C21.4497 13.2637 21.5064 13.5519 21.5651 13.8394C21.6052 14.0368 21.6432 14.2352 21.6646 14.4353C21.7044 14.8075 21.7351 15.1804 21.7621 15.5536C21.8181 16.3291 21.8695 17.1047 21.9221 17.8802C21.9411 18.1618 21.9584 18.4432 21.9763 18.7248C21.9774 18.7421 21.9787 18.7594 21.9784 18.7767C21.977 18.8472 21.9563 18.8758 21.8892 18.8772C21.7396 18.8807 21.5896 18.8828 21.4404 18.8772C21.3979 18.8755 21.3495 18.8548 21.316 18.8278C21.1062 18.6581 20.8626 18.5558 20.6128 18.467C20.1072 18.2869 19.5855 18.1694 19.0592 18.0661C18.3128 17.9196 17.5605 17.8128 16.8058 17.7236C15.7419 17.5982 14.6738 17.518 13.6036 17.4755C12.4177 17.4285 11.2321 17.434 10.0465 17.4924C9.10283 17.5387 8.1619 17.6151 7.22477 17.733C6.76795 17.7903 6.31251 17.8601 5.85742 17.9317C5.51637 17.9852 5.17565 18.0443 4.83736 18.1128C4.2786 18.2254 3.72261 18.3509 3.19081 18.5638C3.01424 18.6346 2.84146 18.7117 2.68942 18.8302C2.65521 18.8568 2.60683 18.8779 2.56433 18.8786C2.40365 18.8821 2.24227 18.8762 2.08159 18.8731C2.07157 18.8731 2.06155 18.8634 2.03184 18.8475H2.0308ZM2.77339 15.9244C2.8228 15.9417 2.84803 15.9051 2.87394 15.8761C2.94305 15.799 3.00802 15.7178 3.07885 15.6421C3.49559 15.1973 3.97798 14.8348 4.49907 14.5237C5.34981 14.016 6.26137 13.649 7.2106 13.3729C7.82465 13.1942 8.44871 13.0584 9.08038 12.9551C9.95185 12.8127 10.8278 12.7353 11.7104 12.7207C13.0051 12.6993 14.2871 12.813 15.5567 13.0691C16.2067 13.2001 16.8456 13.3705 17.4717 13.5892C18.1701 13.8332 18.8394 14.138 19.4687 14.5279C20.1231 14.9336 20.7285 15.3974 21.2085 16.0091C21.2192 16.0229 21.2406 16.0285 21.2648 16.0423C21.2648 16.0101 21.2697 15.9918 21.2641 15.9773C21.2223 15.8702 21.1826 15.762 21.1349 15.6573C20.921 15.1887 20.6498 14.7553 20.3225 14.3572C19.8066 13.7299 19.2016 13.2011 18.5312 12.746C17.7921 12.2445 16.9873 11.8761 16.1427 11.5938C15.3984 11.3453 14.6358 11.1711 13.8583 11.0588C13.0518 10.9423 12.2418 10.9088 11.4287 10.9402C10.7598 10.9661 10.0984 11.0567 9.4432 11.1935C8.92937 11.3007 8.42556 11.4445 7.93177 11.6207C7.46493 11.7873 7.01087 11.9843 6.57064 12.2131C5.75963 12.6343 5.00219 13.1337 4.32906 13.7555C3.79656 14.2473 3.33456 14.7961 2.99557 15.4403C2.91264 15.5975 2.84872 15.7648 2.77719 15.9286C2.7765 15.9338 2.77442 15.939 2.77511 15.9438C2.77546 15.9472 2.77995 15.9497 2.78237 15.9528L2.77269 15.9241L2.77339 15.9244ZM2.621 13.7226C2.62687 13.7206 2.63482 13.7206 2.6362 13.7171C2.65037 13.6857 2.66488 13.6542 2.67629 13.6217C2.80967 13.2347 2.97346 12.8611 3.15488 12.494C3.49075 11.8149 3.90161 11.1835 4.37087 10.5908C4.99528 9.80252 5.70918 9.10234 6.49531 8.47473C7.09968 7.99193 7.73618 7.55924 8.41761 7.19325C8.98708 6.8874 9.57762 6.63235 10.1993 6.45057C10.6765 6.31129 11.1599 6.2159 11.6568 6.18273C12.1368 6.15059 12.6126 6.17858 13.0846 6.26256C13.774 6.38525 14.4343 6.6047 15.0715 6.89259C15.65 7.15386 16.2001 7.46662 16.7257 7.82293C17.5004 8.34824 18.2102 8.94993 18.8525 9.6311C19.3913 10.2024 19.8761 10.8144 20.2963 11.4787C20.7137 12.1384 21.0623 12.8303 21.3177 13.5688C21.3353 13.6196 21.3509 13.6715 21.401 13.7206C21.401 13.6874 21.4044 13.6698 21.4006 13.6539C21.3039 13.2626 21.2026 12.8732 21.0748 12.4906C20.8516 11.8225 20.5706 11.1801 20.2413 10.5587C19.8522 9.82464 19.3992 9.13137 18.8899 8.47473C18.2737 7.68055 17.5861 6.95548 16.8197 6.30541C16.1631 5.74831 15.4606 5.25964 14.6914 4.87049C14.1396 4.59125 13.566 4.37214 12.9578 4.24703C12.3745 4.12677 11.7919 4.11744 11.2076 4.23114C10.7877 4.31304 10.3831 4.44679 9.99055 4.61406C9.4007 4.86531 8.84609 5.18119 8.31705 5.54337C7.66949 5.98677 7.06754 6.48547 6.50188 7.0291C6.02813 7.48425 5.58271 7.96498 5.17116 8.47784C4.78518 8.95891 4.4303 9.46176 4.10825 9.98741C3.81902 10.4592 3.56332 10.9489 3.33767 11.4538C3.13552 11.9062 2.95929 12.3689 2.81934 12.8445C2.7416 13.1095 2.68009 13.3791 2.61236 13.6469C2.60614 13.6715 2.59025 13.7009 2.62135 13.7223L2.621 13.7226ZM21.2793 14.2317L21.3108 14.2186C21.2579 14.0433 21.212 13.8654 21.1515 13.6929C20.9144 13.0173 20.6104 12.3724 20.2389 11.76C19.9041 11.2077 19.5233 10.6876 19.101 10.1989C18.3667 9.34944 17.5374 8.60744 16.604 7.98087C15.8984 7.50706 15.1545 7.10997 14.3552 6.81863C13.8068 6.61853 13.2446 6.47476 12.6644 6.40771C12.3089 6.36658 11.9526 6.3576 11.5956 6.38836C10.89 6.44884 10.2121 6.62544 9.55585 6.88498C8.92246 7.13554 8.32362 7.45453 7.75001 7.82224C7.11834 8.22728 6.52918 8.68693 5.97249 9.18908C5.43689 9.67223 4.94241 10.1944 4.49803 10.7622C4.13209 11.2295 3.80382 11.7227 3.51701 12.2438C3.17146 12.8721 2.90159 13.5308 2.70082 14.2186C2.69564 14.2358 2.7022 14.2566 2.70428 14.2932C2.78548 14.2179 2.80068 14.1291 2.838 14.0537C3.15556 13.4164 3.55053 12.8313 4.0108 12.2894C4.60653 11.5879 5.28969 10.9814 6.03918 10.4498C7.02262 9.75206 8.0845 9.20947 9.23933 8.8542C9.86892 8.66066 10.5106 8.53141 11.1654 8.46333C11.9263 8.38453 12.6841 8.41771 13.4388 8.52761C14.0148 8.61159 14.5812 8.74464 15.1348 8.92608C15.5508 9.06225 15.9586 9.2188 16.357 9.40197C17.0768 9.73271 17.7537 10.1329 18.3778 10.6209C19.1901 11.2561 19.8999 11.9908 20.4884 12.8393C20.7116 13.161 20.9186 13.4932 21.0876 13.8474C21.1491 13.9766 21.2154 14.1038 21.2793 14.2317ZM21.2555 15.0228C21.2545 15.0062 21.2565 14.9893 21.2517 14.9747C21.0834 14.4643 20.8609 13.9784 20.5865 13.5163C20.2475 12.945 19.845 12.4215 19.3933 11.9342C18.5699 11.0463 17.6155 10.3358 16.5298 9.80148C15.7882 9.43653 15.0145 9.1604 14.2101 8.96997C13.6486 8.83692 13.0801 8.74844 12.5037 8.71803C11.6122 8.67138 10.7335 8.75778 9.86616 8.97205C8.81223 9.23228 7.82672 9.65529 6.90133 10.2186C6.14631 10.6783 5.44898 11.2139 4.82008 11.8364C4.12794 12.5217 3.53774 13.282 3.10719 14.1602C2.97277 14.4346 2.85183 14.7142 2.75922 15.0058C2.75196 15.0286 2.73192 15.0577 2.77269 15.0808C2.81658 15.0134 2.85805 14.945 2.90401 14.8804C3.04706 14.6789 3.18217 14.4702 3.33836 14.279C3.97832 13.4942 4.75788 12.8711 5.61485 12.3402C5.94278 12.137 6.28141 11.9528 6.628 11.7828C7.08862 11.5568 7.56237 11.3622 8.04891 11.2015C8.60144 11.019 9.16331 10.8742 9.73727 10.7716C10.3392 10.6637 10.945 10.5991 11.5556 10.5763C12.276 10.5497 12.9937 10.5863 13.709 10.6779C14.2353 10.7453 14.756 10.8397 15.2699 10.9679C15.9015 11.1255 16.5208 11.3238 17.12 11.581C17.6286 11.7994 18.1207 12.0492 18.5858 12.3503C18.9389 12.5787 19.2745 12.8313 19.5934 13.1054C20.2178 13.6414 20.7641 14.2445 21.1802 14.9588C21.1961 14.9861 21.2068 15.0231 21.2548 15.0224L21.2555 15.0228ZM21.4065 18.2265C21.3948 18.1687 21.3923 18.1414 21.3837 18.1162C21.3194 17.9282 21.2168 17.7634 21.0848 17.6154C20.8875 17.3939 20.6511 17.2197 20.4044 17.0601C20.0164 16.8088 19.5982 16.6149 19.1687 16.4477C18.5996 16.2261 18.0167 16.0492 17.4227 15.9047C16.9074 15.7796 16.3884 15.6784 15.8656 15.5923C15.018 15.4524 14.1641 15.3708 13.3068 15.3279C12.3344 15.2796 11.3617 15.2865 10.389 15.3411C9.56034 15.3877 8.73586 15.4672 7.91691 15.6034C7.55926 15.6628 7.20196 15.7268 6.84743 15.8024C6.2669 15.9262 5.69605 16.0851 5.13661 16.2852C4.65318 16.458 4.18151 16.6568 3.74231 16.9253C3.46138 17.0971 3.1953 17.2882 2.97173 17.5325C2.81865 17.6994 2.68769 17.8805 2.62756 18.1034C2.61927 18.1342 2.62134 18.1681 2.61754 18.2154C2.66454 18.1999 2.69737 18.1933 2.72639 18.1791C3.11099 17.9908 3.51667 17.8632 3.92856 17.7523C4.49596 17.5992 5.07061 17.4779 5.65044 17.3839C6.12212 17.3075 6.59483 17.2374 7.06892 17.1786C7.60591 17.1119 8.14359 17.0487 8.68299 17.0065C9.3658 16.9533 10.05 16.9135 10.7345 16.8842C11.6727 16.8437 12.6109 16.8544 13.5494 16.8925C14.4589 16.9294 15.3656 16.9941 16.2706 17.0884C16.5166 17.114 16.7623 17.1472 17.0077 17.18C17.3957 17.2322 17.7848 17.2775 18.1704 17.3428C18.7551 17.4416 19.3377 17.5508 19.9117 17.7029C20.3854 17.8283 20.8533 17.969 21.2952 18.1846C21.3201 18.1967 21.3474 18.2043 21.4065 18.2261V18.2265ZM2.72639 17.029C2.74851 17.0158 2.77269 17.0051 2.79239 16.9889C2.86357 16.9305 2.93061 16.8672 3.00352 16.8105C3.34666 16.5444 3.724 16.3364 4.11585 16.1532C4.76998 15.847 5.45348 15.6231 6.15149 15.443C7.02228 15.2184 7.90654 15.0632 8.80048 14.9644C9.1951 14.9208 9.59144 14.8908 9.9871 14.8555C10.5265 14.8071 11.0676 14.7898 11.6088 14.7822C12.3921 14.7712 13.1741 14.7978 13.9557 14.8569C14.4958 14.8977 15.0339 14.9543 15.5698 15.0283C16.2429 15.1216 16.9105 15.2478 17.5702 15.4123C18.0954 15.5429 18.6148 15.6939 19.1217 15.8861C19.8788 16.1729 20.6086 16.5082 21.2282 17.0445C21.2444 17.0587 21.2673 17.0722 21.2935 17.0376C21.2811 17.0062 21.2686 16.9688 21.252 16.9336C21.0872 16.58 20.856 16.2735 20.5872 15.9936C20.1774 15.5667 19.7061 15.2187 19.2012 14.9156C18.5771 14.5407 17.9144 14.2466 17.2291 14.004C16.5989 13.7807 15.9541 13.6082 15.2986 13.4759C14.3594 13.2861 13.4098 13.1828 12.4526 13.1583C11.4954 13.1341 10.5421 13.1887 9.59317 13.3224C8.65016 13.4551 7.72478 13.6597 6.82117 13.9632C6.02674 14.2303 5.26515 14.5655 4.55401 15.0117C4.11309 15.2885 3.70568 15.6068 3.35391 15.9922C3.10028 16.27 2.88604 16.5759 2.73468 16.9225C2.72155 16.9526 2.69633 16.9823 2.72674 17.0293L2.72639 17.029Z" fill="#1E1E1E"/>
<path d="M21.9801 19.8868C21.9452 19.8947 21.9234 19.9041 21.9016 19.9041C15.3016 19.9051 8.70162 19.9054 2.1016 19.9051C2.07949 19.9051 2.05772 19.8954 2.04044 19.8913C1.99137 19.8384 2.00278 19.7779 2.0045 19.7219C2.00865 19.5626 1.98377 19.4016 2.02005 19.2498C2.09815 19.2094 2.16829 19.2232 2.23602 19.2232C2.84661 19.2225 3.45685 19.2236 4.06744 19.2236C9.95908 19.2243 15.8507 19.2253 21.7423 19.226C22.0091 19.226 21.9991 19.2101 21.997 19.4786C21.996 19.61 22.0115 19.7427 21.9804 19.8868H21.9801Z" fill="#1E1E1E"/>
</svg>
