<svg width="132" height="32" viewBox="0 0 132 32" fill="none" xmlns="http://www.w3.org/2000/svg">
<mask id="mask0_274_2369" style="mask-type:luminance" maskUnits="userSpaceOnUse" x="0" y="0" width="132" height="32">
<path d="M131.699 0.0859375H0.0859375V31.9139H131.699V0.0859375Z" fill="white"/>
</mask>
<g mask="url(#mask0_274_2369)">
<path d="M0.0859375 28.4V20.5067L25.9094 11.7986C25.9094 11.7986 27.8958 12.3588 28.5069 12.5115C32.4797 13.6319 34.4152 15.9744 34.4152 19.6919C34.4152 22.6455 32.6836 24.1224 30.2387 25.2427L16.4357 31.5574C16.4357 31.5574 15.6717 31.9138 14.5002 31.9138C13.5834 31.9138 12.5647 31.6592 12.5647 31.6592L9.05029 30.7426L0.0859375 28.4Z" fill="url(#paint0_linear_274_2369)"/>
<path d="M0.0859375 7.36817L15.7226 0.0859375C15.7226 0.0859375 25.3491 2.6831 28.5578 3.59974C32.5308 4.72009 34.4663 7.06262 34.4663 10.7801C34.4663 13.7338 32.7345 15.2106 30.2896 16.3309L16.232 22.6456L0.0859375 7.36817Z" fill="url(#paint1_linear_274_2369)"/>
<path d="M0.0859375 28.4001V7.36816C0.0859375 7.36816 9.71243 9.96533 12.9213 10.882C16.8941 12.0023 18.8295 14.4976 18.8295 18.2152C18.8295 21.1688 16.5375 23.8678 12.8194 22.9002L9.10121 21.8817V30.7936L0.0859375 28.4001Z" fill="#28E6A5"/>
<path d="M116.317 9.71069H112.751L106.843 15.3633V9.71069H104.042V22.3909H106.843V18.7753L109.033 16.6874L114.024 22.3909H117.59L110.968 14.8032L116.317 9.71069Z" fill="#F3F4F4"/>
<path d="M91.41 18.4188V9.71069H88.6086V22.3909H91.41L98.4388 13.6828V22.3909H101.24V9.71069H98.4388L91.41 18.4188Z" fill="#F3F4F4"/>
<path d="M128.897 9.71069L121.818 18.4188V9.71069H119.067V22.3909H121.818L128.897 13.6828V22.3909H131.699V9.71069H128.897Z" fill="#F3F4F4"/>
<path d="M54.6359 9.71069H49.899H47.0977V12.0532V15.9235V18.266V22.3909H49.899V18.266H54.6359C57.1825 18.266 58.8633 16.3309 58.8633 13.9884C58.8633 11.6458 57.2334 9.71069 54.6359 9.71069ZM54.3302 15.9235H49.899V12.0532H54.3302C55.5527 12.0532 56.2657 12.919 56.2657 13.9884C56.2657 15.0578 55.5527 15.9235 54.3302 15.9235Z" fill="#F3F4F4"/>
<path d="M66.2487 16.3818L62.2759 9.71069H59.1689L64.7208 19.0299L62.7344 22.3909H65.6885L73.1247 9.71069H70.1706L66.2487 16.3818Z" fill="#F3F4F4"/>
<path d="M85.0434 15.7198C85.8075 15.1087 86.2149 14.1411 86.2149 13.0717C86.2149 11.2894 84.8906 9.71069 82.9552 9.71069H77.3524H74.551V12.0532V14.8032V16.942V20.0993V22.4419H77.3524H83.2607C85.4508 22.4419 86.7752 20.7613 86.7752 18.8771C86.7752 17.5022 86.0621 16.3309 85.0434 15.7198ZM77.3524 12.0532H82.3439C83.2098 12.0532 83.7192 12.6643 83.7192 13.4282C83.7192 14.1921 83.2607 14.8032 82.3439 14.8032H77.3524V12.0532ZM82.6496 20.0484H77.3524V16.8911H82.6496C83.6683 16.8911 84.2284 17.604 84.2284 18.4697C84.2284 19.3355 83.6173 20.0484 82.6496 20.0484Z" fill="#F3F4F4"/>
</g>
<defs>
<linearGradient id="paint0_linear_274_2369" x1="0.330471" y1="10.7453" x2="52.3856" y2="45.6196" gradientUnits="userSpaceOnUse">
<stop offset="0.0318767" stop-color="#4B009B"/>
<stop offset="0.3237" stop-color="#6B0CBD"/>
<stop offset="0.7749" stop-color="#991DED"/>
<stop offset="1" stop-color="#AA23FF"/>
</linearGradient>
<linearGradient id="paint1_linear_274_2369" x1="11.359" y1="-3.95546" x2="23.8218" y2="21.428" gradientUnits="userSpaceOnUse">
<stop offset="0.0439537" stop-color="#4B009B"/>
<stop offset="0.772" stop-color="#AA23FF"/>
</linearGradient>
</defs>
</svg>
