<svg width="108" height="28" viewBox="0 0 108 28" fill="none" xmlns="http://www.w3.org/2000/svg">
<g id="RUWIKI_new logo 1" clip-path="url(#clip0_2430_11735)">
<g id="Clip path group">
<mask id="mask0_2430_11735" style="mask-type:luminance" maskUnits="userSpaceOnUse" x="0" y="0" width="108" height="28">
<g id="clip0_3707_146">
<path id="Vector" d="M107.929 0.952881H0.0703125V27.0364H107.929V0.952881Z" fill="white"/>
</g>
</mask>
<g mask="url(#mask0_2430_11735)">
<g id="Group">
<path id="Vector_2" d="M0.0703125 24.1577V17.6889L21.2331 10.5525C21.2331 10.5525 22.861 11.0116 23.3618 11.1368C26.6176 12.0549 28.2037 13.9747 28.2037 17.0212C28.2037 19.4418 26.7847 20.652 24.781 21.5702L13.4692 26.7451C13.4692 26.7451 12.8431 27.0373 11.883 27.0373C11.1317 27.0373 10.2969 26.8286 10.2969 26.8286L7.41675 26.0774L0.0703125 24.1577Z" fill="url(#paint0_linear_2430_11735)"/>
<path id="Vector_3" d="M0.0703125 6.9208L12.8848 0.952881C12.8848 0.952881 20.7739 3.0813 23.4035 3.8325C26.6595 4.75065 28.2456 6.67039 28.2456 9.71695C28.2456 12.1375 26.8264 13.3478 24.8228 14.2659L13.3023 19.4409L0.0703125 6.9208Z" fill="url(#paint1_linear_2430_11735)"/>
<path id="Vector_4" d="M0.0703125 24.1601V6.92407C0.0703125 6.92407 7.9594 9.05249 10.5891 9.8037C13.8449 10.7218 15.431 12.7668 15.431 15.8134C15.431 18.2339 13.5527 20.4458 10.5056 19.6529L7.45849 18.8182V26.1216L0.0703125 24.1601Z" fill="#28E6A5"/>
<path id="Vector_5" d="M95.3233 8.84375H92.4014L87.5595 13.4762V8.84375H85.2637V19.2354H87.5595V16.2723L89.3543 14.5613L93.4449 19.2354H96.3668L90.9404 13.0171L95.3233 8.84375Z" fill="#1E1E1E"/>
<path id="Vector_6" d="M74.913 15.9802V8.84375H72.6172V19.2354H74.913L80.6732 12.099V19.2354H82.969V8.84375H80.6732L74.913 15.9802Z" fill="#1E1E1E"/>
<path id="Vector_7" d="M105.634 8.84375L99.8322 15.9802V8.84375H97.5781V19.2354H99.8322L105.634 12.099V19.2354H107.93V8.84375H105.634Z" fill="#1E1E1E"/>
<path id="Vector_8" d="M44.7754 8.84375H40.8934H38.5977V10.7635V13.9353V15.855V19.2354H40.8934V15.855H44.7754C46.8623 15.855 48.2398 14.2691 48.2398 12.3494C48.2398 10.4296 46.9041 8.84375 44.7754 8.84375ZM44.5248 13.9353H40.8934V10.7635H44.5248C45.5267 10.7635 46.111 11.473 46.111 12.3494C46.111 13.2258 45.5267 13.9353 44.5248 13.9353Z" fill="#1E1E1E"/>
<path id="Vector_9" d="M54.2922 14.3109L51.0364 8.84375H48.4902L53.04 16.481L51.4122 19.2354H53.8331L59.9272 8.84375H57.5063L54.2922 14.3109Z" fill="#1E1E1E"/>
<path id="Vector_10" d="M69.6944 13.7683C70.3205 13.2675 70.6544 12.4746 70.6544 11.5982C70.6544 10.1375 69.5692 8.84375 67.983 8.84375H63.3915H61.0957V10.7635V13.0171V14.7699V17.3574V19.2772H63.3915H68.2334C70.0283 19.2772 71.1136 17.8999 71.1136 16.3558C71.1136 15.229 70.5292 14.2691 69.6944 13.7683ZM63.3915 10.7635H67.4821C68.1917 10.7635 68.6092 11.2643 68.6092 11.8903C68.6092 12.5163 68.2334 13.0171 67.4821 13.0171H63.3915V10.7635ZM67.7326 17.3157H63.3915V14.7282H67.7326C68.5674 14.7282 69.0265 15.3125 69.0265 16.0219C69.0265 16.7314 68.5257 17.3157 67.7326 17.3157Z" fill="#1E1E1E"/>
</g>
</g>
</g>
</g>
<defs>
<linearGradient id="paint0_linear_2430_11735" x1="0.270712" y1="9.68931" x2="42.9308" y2="38.2694" gradientUnits="userSpaceOnUse">
<stop offset="0.0318767" stop-color="#4B009B"/>
<stop offset="0.3237" stop-color="#6B0CBD"/>
<stop offset="0.7749" stop-color="#991DED"/>
<stop offset="1" stop-color="#AA23FF"/>
</linearGradient>
<linearGradient id="paint1_linear_2430_11735" x1="9.30875" y1="-2.35911" x2="19.5223" y2="18.4431" gradientUnits="userSpaceOnUse">
<stop offset="0.0439537" stop-color="#4B009B"/>
<stop offset="0.772" stop-color="#AA23FF"/>
</linearGradient>
<clipPath id="clip0_2430_11735">
<rect width="108" height="26.2245" fill="white" transform="translate(0 0.887451)"/>
</clipPath>
</defs>
</svg>
