<svg width="108" height="27" viewBox="0 0 108 27" fill="none" xmlns="http://www.w3.org/2000/svg">
<g clip-path="url(#clip0_2548_12893)">
<mask id="mask0_2548_12893" style="mask-type:luminance" maskUnits="userSpaceOnUse" x="0" y="0" width="108" height="27">
<path d="M107.929 0.0654297H0.0703125V26.149H107.929V0.0654297Z" fill="white"/>
</mask>
<g mask="url(#mask0_2548_12893)">
<path d="M0.0703125 23.2702V16.8015L21.2331 9.66504C21.2331 9.66504 22.861 10.1241 23.3618 10.2493C26.6176 11.1675 28.2037 13.0872 28.2037 16.1337C28.2037 18.5543 26.7847 19.7646 24.781 20.6827L13.4692 25.8577C13.4692 25.8577 12.8431 26.1498 11.883 26.1498C11.1317 26.1498 10.2969 25.9412 10.2969 25.9412L7.41675 25.19L0.0703125 23.2702Z" fill="url(#paint0_linear_2548_12893)"/>
<path d="M0.0703125 6.03335L12.8848 0.0654297C12.8848 0.0654297 20.7739 2.19385 23.4035 2.94505C26.6595 3.86319 28.2456 5.78294 28.2456 8.8295C28.2456 11.2501 26.8264 12.4603 24.8228 13.3785L13.3023 18.5534L0.0703125 6.03335Z" fill="url(#paint1_linear_2548_12893)"/>
<path d="M0.0703125 23.2725V6.0365C0.0703125 6.0365 7.9594 8.16492 10.5891 8.91612C13.8449 9.83427 15.431 11.8792 15.431 14.9258C15.431 17.3463 13.5527 19.5582 10.5056 18.7653L7.45849 17.9306V25.234L0.0703125 23.2725Z" fill="#28E6A5"/>
<path d="M95.3233 7.95642H92.4014L87.5595 12.5889V7.95642H85.2637V18.3481H87.5595V15.385L89.3543 13.6739L93.4449 18.3481H96.3668L90.9404 12.1298L95.3233 7.95642Z" fill="#F3F4F4"/>
<path d="M74.913 15.0929V7.95642H72.6172V18.3481H74.913L80.6732 11.2116V18.3481H82.969V7.95642H80.6732L74.913 15.0929Z" fill="#F3F4F4"/>
<path d="M105.634 7.95642L99.8322 15.0929V7.95642H97.5781V18.3481H99.8322L105.634 11.2116V18.3481H107.93V7.95642H105.634Z" fill="#F3F4F4"/>
<path d="M44.7754 7.95642H40.8934H38.5977V9.87617V13.0479V14.9677V18.3481H40.8934V14.9677H44.7754C46.8623 14.9677 48.2398 13.3818 48.2398 11.462C48.2398 9.5423 46.9041 7.95642 44.7754 7.95642ZM44.5248 13.0479H40.8934V9.87617H44.5248C45.5267 9.87617 46.111 10.5856 46.111 11.462C46.111 12.3385 45.5267 13.0479 44.5248 13.0479Z" fill="#F3F4F4"/>
<path d="M54.2922 13.4235L51.0364 7.95642H48.4902L53.04 15.5937L51.4122 18.3481H53.8331L59.9272 7.95642H57.5063L54.2922 13.4235Z" fill="#F3F4F4"/>
<path d="M69.6944 12.881C70.3205 12.3802 70.6544 11.5873 70.6544 10.7108C70.6544 9.25017 69.5692 7.95642 67.983 7.95642H63.3915H61.0957V9.87617V12.1298V13.8826V16.4701V18.3898H63.3915H68.2334C70.0283 18.3898 71.1136 17.0126 71.1136 15.4685C71.1136 14.3417 70.5292 13.3818 69.6944 12.881ZM63.3915 9.87617H67.4821C68.1917 9.87617 68.6092 10.377 68.6092 11.003C68.6092 11.629 68.2334 12.1298 67.4821 12.1298H63.3915V9.87617ZM67.7326 16.4283H63.3915V13.8409H67.7326C68.5674 13.8409 69.0265 14.4251 69.0265 15.1346C69.0265 15.8441 68.5257 16.4283 67.7326 16.4283Z" fill="#F3F4F4"/>
</g>
</g>
<defs>
<linearGradient id="paint0_linear_2548_12893" x1="0.270712" y1="8.80186" x2="42.9308" y2="37.382" gradientUnits="userSpaceOnUse">
<stop offset="0.0318767" stop-color="#4B009B"/>
<stop offset="0.3237" stop-color="#6B0CBD"/>
<stop offset="0.7749" stop-color="#991DED"/>
<stop offset="1" stop-color="#AA23FF"/>
</linearGradient>
<linearGradient id="paint1_linear_2548_12893" x1="9.30875" y1="-3.24656" x2="19.5223" y2="17.5557" gradientUnits="userSpaceOnUse">
<stop offset="0.0439537" stop-color="#4B009B"/>
<stop offset="0.772" stop-color="#AA23FF"/>
</linearGradient>
<clipPath id="clip0_2548_12893">
<rect width="108" height="26.2245" fill="white"/>
</clipPath>
</defs>
</svg>
