<svg width="132" height="32" viewBox="0 0 132 32" fill="none" xmlns="http://www.w3.org/2000/svg">
<mask id="mask0_130_4391" style="mask-type:luminance" maskUnits="userSpaceOnUse" x="0" y="0" width="132" height="32">
<path d="M131.699 0.0859375H0.0859375V31.9139H131.699V0.0859375Z" fill="white"/>
</mask>
<g mask="url(#mask0_130_4391)">
<path d="M0.0859375 28.4001V20.5068L25.9094 11.7986C25.9094 11.7986 27.8958 12.3588 28.5069 12.5116C32.4797 13.6319 34.4152 15.9745 34.4152 19.692C34.4152 22.6456 32.6836 24.1224 30.2387 25.2428L16.4357 31.5574C16.4357 31.5574 15.6717 31.9139 14.5002 31.9139C13.5834 31.9139 12.5647 31.6593 12.5647 31.6593L9.05029 30.7426L0.0859375 28.4001Z" fill="url(#paint0_linear_130_4391)"/>
<path d="M0.0859375 7.36817L15.7226 0.0859375C15.7226 0.0859375 25.3491 2.6831 28.5578 3.59974C32.5308 4.72009 34.4663 7.06262 34.4663 10.7801C34.4663 13.7338 32.7345 15.2106 30.2896 16.3309L16.232 22.6456L0.0859375 7.36817Z" fill="url(#paint1_linear_130_4391)"/>
<path d="M0.0859375 28.4001V7.36816C0.0859375 7.36816 9.71243 9.96533 12.9213 10.882C16.8941 12.0023 18.8295 14.4976 18.8295 18.2152C18.8295 21.1688 16.5375 23.8678 12.8194 22.9002L9.10121 21.8817V30.7936L0.0859375 28.4001Z" fill="#28E6A5"/>
<path d="M116.317 9.71075H112.751L106.843 15.3634V9.71075H104.042V22.391H106.843V18.7753L109.033 16.6874L114.024 22.391H117.59L110.968 14.8032L116.317 9.71075Z" fill="#1E1E1E"/>
<path d="M91.41 18.4189V9.71075H88.6086V22.391H91.41L98.4388 13.6829V22.391H101.24V9.71075H98.4388L91.41 18.4189Z" fill="#1E1E1E"/>
<path d="M128.897 9.71075L121.818 18.4189V9.71075H119.067V22.391H121.818L128.897 13.6829V22.391H131.699V9.71075H128.897Z" fill="#1E1E1E"/>
<path d="M54.6359 9.71075H49.899H47.0977V12.0533V15.9236V18.2661V22.391H49.899V18.2661H54.6359C57.1825 18.2661 58.8633 16.331 58.8633 13.9884C58.8633 11.6459 57.2334 9.71075 54.6359 9.71075ZM54.3302 15.9236H49.899V12.0533H54.3302C55.5527 12.0533 56.2657 12.919 56.2657 13.9884C56.2657 15.0579 55.5527 15.9236 54.3302 15.9236Z" fill="#1E1E1E"/>
<path d="M66.2487 16.3819L62.2759 9.71075H59.1689L64.7208 19.03L62.7344 22.391H65.6885L73.1247 9.71075H70.1706L66.2487 16.3819Z" fill="#1E1E1E"/>
<path d="M85.0434 15.7199C85.8075 15.1088 86.2149 14.1412 86.2149 13.0718C86.2149 11.2894 84.8906 9.71075 82.9552 9.71075H77.3524H74.551V12.0533V14.8032V16.9421V20.0994V22.4419H77.3524H83.2607C85.4508 22.4419 86.7752 20.7614 86.7752 18.8772C86.7752 17.5022 86.0621 16.331 85.0434 15.7199ZM77.3524 12.0533H82.3439C83.2098 12.0533 83.7192 12.6644 83.7192 13.4283C83.7192 14.1921 83.2607 14.8032 82.3439 14.8032H77.3524V12.0533ZM82.6496 20.0485H77.3524V16.8911H82.6496C83.6683 16.8911 84.2284 17.6041 84.2284 18.4698C84.2284 19.3355 83.6173 20.0485 82.6496 20.0485Z" fill="#1E1E1E"/>
</g>
<defs>
<linearGradient id="paint0_linear_130_4391" x1="0.330471" y1="10.7454" x2="52.3856" y2="45.6197" gradientUnits="userSpaceOnUse">
<stop offset="0.0318767" stop-color="#4B009B"/>
<stop offset="0.3237" stop-color="#6B0CBD"/>
<stop offset="0.7749" stop-color="#991DED"/>
<stop offset="1" stop-color="#AA23FF"/>
</linearGradient>
<linearGradient id="paint1_linear_130_4391" x1="11.359" y1="-3.95546" x2="23.8218" y2="21.428" gradientUnits="userSpaceOnUse">
<stop offset="0.0439537" stop-color="#4B009B"/>
<stop offset="0.772" stop-color="#AA23FF"/>
</linearGradient>
</defs>
</svg>
