<svg width="136" height="40" viewBox="0 0 136 40" fill="none" xmlns="http://www.w3.org/2000/svg">
<g clip-path="url(#clip0_2325_49240)">
<mask id="mask0_2325_49240" style="mask-type:luminance" maskUnits="userSpaceOnUse" x="2" y="4" width="132" height="32">
<path d="M133.698 4.07983H2.0853V35.9078H133.698V4.07983Z" fill="white"/>
</mask>
<g mask="url(#mask0_2325_49240)">
<path d="M2.08621 32.3949V24.5016L27.9097 15.7935C27.9097 15.7935 29.8961 16.3536 30.5072 16.5064C34.48 17.6267 36.4155 19.9693 36.4155 23.6868C36.4155 26.6404 34.6839 28.1172 32.239 29.2376L18.436 35.5522C18.436 35.5522 17.6719 35.9087 16.5005 35.9087C15.5837 35.9087 14.565 35.6541 14.565 35.6541L11.0506 34.7374L2.08621 32.3949Z" fill="url(#paint0_linear_2325_49240)"/>
<path d="M2.08575 11.3621L17.7224 4.07983C17.7224 4.07983 27.3489 6.677 30.5577 7.59364C34.5307 8.71398 36.4662 11.0565 36.4662 14.774C36.4662 17.7277 34.7344 19.2045 32.2895 20.3248L18.2318 26.6395L2.08575 11.3621Z" fill="url(#paint1_linear_2325_49240)"/>
<path d="M2.0856 32.3979V11.366C2.0856 11.366 11.7121 13.9631 14.9209 14.8798C18.8938 16.0001 20.8292 18.4954 20.8292 22.213C20.8292 25.1666 18.5372 27.8656 14.8191 26.898L11.1009 25.8795V34.7914L2.0856 32.3979Z" fill="#28E6A5"/>
<path d="M118.317 13.7087H114.751L108.843 19.3614V13.7087H106.041V26.389H108.843V22.7733L111.033 20.6854L116.024 26.389H119.59L112.968 18.8012L118.317 13.7087Z" fill="#1E1E1E"/>
<path d="M93.4101 22.4168V13.7087H90.6088V26.389H93.4101L100.439 17.6809V26.389H103.24V13.7087H100.439L93.4101 22.4168Z" fill="#1E1E1E"/>
<path d="M130.897 13.7087L123.817 22.4168V13.7087H121.067V26.389H123.817L130.897 17.6809V26.389H133.698V13.7087H130.897Z" fill="#1E1E1E"/>
<path d="M56.6363 13.7087H51.8995H49.0981V16.0513V19.9216V22.2641V26.389H51.8995V22.2641H56.6363C59.1829 22.2641 60.8638 20.329 60.8638 17.9864C60.8638 15.6439 59.2338 13.7087 56.6363 13.7087ZM56.3306 19.9216H51.8995V16.0513H56.3306C57.5531 16.0513 58.2661 16.917 58.2661 17.9864C58.2661 19.0558 57.5531 19.9216 56.3306 19.9216Z" fill="#1E1E1E"/>
<path d="M68.2489 20.3799L64.2761 13.7087H61.1692L66.721 23.0279L64.7346 26.389H67.6888L75.125 13.7087H72.1708L68.2489 20.3799Z" fill="#1E1E1E"/>
<path d="M87.0428 19.7179C87.8069 19.1068 88.2143 18.1392 88.2143 17.0698C88.2143 15.2874 86.8901 13.7087 84.9546 13.7087H79.3518H76.5504V16.0513V18.8012V20.9401V24.0974V26.4399H79.3518H85.2601C87.4502 26.4399 88.7746 24.7594 88.7746 22.8752C88.7746 21.5002 88.0615 20.329 87.0428 19.7179ZM79.3518 16.0513H84.3433C85.2092 16.0513 85.7186 16.6624 85.7186 17.4262C85.7186 18.1901 85.2601 18.8012 84.3433 18.8012H79.3518V16.0513ZM84.649 24.0464H79.3518V20.8891H84.649C85.6677 20.8891 86.2279 21.6021 86.2279 22.4678C86.2279 23.3335 85.6168 24.0464 84.649 24.0464Z" fill="#1E1E1E"/>
</g>
</g>
<defs>
<linearGradient id="paint0_linear_2325_49240" x1="2.33075" y1="14.7402" x2="54.3859" y2="49.6145" gradientUnits="userSpaceOnUse">
<stop offset="0.0318767" stop-color="#4B009B"/>
<stop offset="0.3237" stop-color="#6B0CBD"/>
<stop offset="0.7749" stop-color="#991DED"/>
<stop offset="1" stop-color="#AA23FF"/>
</linearGradient>
<linearGradient id="paint1_linear_2325_49240" x1="13.3588" y1="0.0384406" x2="25.8217" y2="25.4219" gradientUnits="userSpaceOnUse">
<stop offset="0.0439537" stop-color="#4B009B"/>
<stop offset="0.772" stop-color="#AA23FF"/>
</linearGradient>
<clipPath id="clip0_2325_49240">
<rect width="131.785" height="32" fill="white" transform="translate(2 4)"/>
</clipPath>
</defs>
</svg>
